<svg xmlns="http://www.w3.org/2000/svg" viewBox="0 0 250 250"><defs><radialGradient id="b" gradientUnits="userSpaceOnUse" cy="222.04" cx="14.21" gradientTransform="scale(1.3952 .71673)" r="8.25"><stop offset="0"/><stop offset="1" stop-opacity="0"/></radialGradient><filter id="a" height="1.42" width="1.22" color-interpolation-filters="sRGB" y="-.21" x="-.11"><feGaussianBlur stdDeviation=".72"/></filter></defs><path d="M28.4 158.7a7.94 4.08 0 11-15.89 0 7.94 4.08 0 1115.9 0z" transform="matrix(5.7761 0 0 6.8941 -17.34 -888.78)" opacity=".5" filter="url(#a)" fill-rule="evenodd" fill="url(#b)"/><path d="M103.36 29.86l1.62 99.14c-6.07 2.51-12.14 4.05-18.21 1.22-2.74-6.11-5.22-13.76-6.88-26.3-4.44-7.05-14.36-4.32-12.55 2.83.96 49.37 4.74 39.29 7.7 43.7 21.6 4.47 18.94.04 29.94 1.62L101.74 233h47.75l-5.26-123.02c4.94 2.38 13.4 3.95 19.43-1.21 5.25-7.07 4.17-21 4.04-32.37-1.04-11.44-15.1-8.03-14.57-2.43-.25 4.87 2.21 14.08-1.21 15.78-3.18 3.69-7.49-3.9-9.71-4.05l-3.64-56.25c-4.75-21.36-36.04-17.72-35.21.4z" stroke="#5c2700" stroke-width="3.13" fill="#250"/><path d="M110.64 24.19c3.69 71.95 2.42 137.95.8 203.55 6.78 36.05 7.15-211.24-.8-203.55zM119.95 23.79c4.65 71.39 5.53 136.87 6.15 201.96 5.9 35.76-.58-209.58-6.15-201.96zM131.28 25.47c4.09 69.5 4.45 133.31 4.57 196.74 5.62 34.74 1.06-204.29-4.57-196.74z" fill="#338000"/><path d="M103.76 39.57l9.3-2.02-.8 4.04-8.5-2.02zM114.28 80.85l9.3-2.02-.8 4.04-8.5-2.02zM126.42 106.75l9.3-2.02-.8 4.04-8.5-2.02zM104.98 150.45l9.3-2.02-.8 4.04-8.5-2.02zM118.33 197.39l9.3-2.02-.8 4.04-8.5-2.02zM142.21 41.19l-9.3-2.02.8 4.04 8.5-2.02zM145.44 148.83l-9.3-2.02.8 4.04 8.5-2.02zM146.66 209.53l-9.3-2.02.8 4.04 8.5-2.02zM172.56 78.82l-9.3-2.02.8 4.04 8.5-2.02zM88.79 119.69l-9.3-2.02.8 4.04 8.5-2.02zM165.2 61.35l-8.13 9.06 5.28 1.43 2.85-10.49zM126.76 43.54l-8.13 9.06 5.28 1.43 2.85-10.49zM139.3 60.13l-8.13 9.06 5.28 1.43 2.85-10.49zM119.07 115.98l-8.13 9.06 5.28 1.43 2.85-10.49zM82.25 96.96l-8.13 9.06 5.28 1.43 2.85-10.49zM118.67 171.01l-8.13 9.06 5.28 1.43 2.85-10.49zM132.02 148.75l-8.13 9.06 5.28 1.43 2.85-10.49zM137.69 16.02l-8.13 9.06 5.28 1.43 2.85-10.49zM64 108.69l8.13 9.06-5.28 1.43L64 108.7zM70.88 132.97l8.13 9.06-5.28 1.43-2.85-10.49zM109.73 59.32l8.13 9.06-5.28 1.43-2.85-10.49zM116.2 17.24l8.13 9.06-5.28 1.43-2.85-10.49zM133.2 124.47l8.13 9.06-5.28 1.43-2.85-10.49zM151.41 81.17l8.13 9.06-5.28 1.43-2.85-10.49zM96.37 124.07l8.13 9.06-5.28 1.43-2.85-10.49z" fill="#8a916f"/><path d="M73.01 111.6c7.99 20.36 10.1 34.94 28.73 34-19.6.53-27.36-4.46-28.73-34zM164.87 84.89c-5.51 13.34-6.97 22.9-19.83 22.27 13.53.35 18.89-2.92 19.83-22.27z" fill="#338000"/></svg>