<?xml version="1.0" encoding="UTF-8" standalone="no"?>
<svg
   xmlns:dc="http://purl.org/dc/elements/1.1/"
   xmlns:cc="http://creativecommons.org/ns#"
   xmlns:rdf="http://www.w3.org/1999/02/22-rdf-syntax-ns#"
   xmlns:svg="http://www.w3.org/2000/svg"
   xmlns="http://www.w3.org/2000/svg"
   xmlns:xlink="http://www.w3.org/1999/xlink"
   xmlns:sodipodi="http://sodipodi.sourceforge.net/DTD/sodipodi-0.dtd"
   xmlns:inkscape="http://www.inkscape.org/namespaces/inkscape"
   width="15.829399mm"
   height="15.87526mm"
   viewBox="0 0 15.829399 15.87526"
   version="1.1"
   id="svg48"
   inkscape:version="1.0.1 (3bc2e813f5, 2020-09-07)"
   sodipodi:docname="genieacs.svg">
  <defs
     id="defs42">
    <linearGradient
       xlink:href="#a"
       id="c"
       gradientUnits="userSpaceOnUse"
       gradientTransform="matrix(0.07507614,0,0,-0.07507614,-149.26904,207.0435)"
       x1="16.045"
       y1="132.80299"
       x2="16.045"
       y2="-81.164001" />
    <linearGradient
       id="a">
      <stop
         offset="0"
         stop-color="#b72f5f"
         id="stop7" />
      <stop
         offset="1"
         stop-color="#872346"
         id="stop9" />
    </linearGradient>
  </defs>
  <sodipodi:namedview
     id="base"
     pagecolor="#ffffff"
     bordercolor="#666666"
     borderopacity="1.0"
     inkscape:pageopacity="0.0"
     inkscape:pageshadow="2"
     inkscape:zoom="7.9195959"
     inkscape:cx="47.02489"
     inkscape:cy="35.609578"
     inkscape:document-units="mm"
     inkscape:current-layer="layer1"
     inkscape:document-rotation="0"
     showgrid="false"
     fit-margin-top="0"
     fit-margin-left="0"
     fit-margin-right="0"
     fit-margin-bottom="0"
     inkscape:window-width="1920"
     inkscape:window-height="1022"
     inkscape:window-x="0"
     inkscape:window-y="25"
     inkscape:window-maximized="1" />
  <metadata
     id="metadata45">
    <rdf:RDF>
      <cc:Work
         rdf:about="">
        <dc:format>image/svg+xml</dc:format>
        <dc:type
           rdf:resource="http://purl.org/dc/dcmitype/StillImage" />
        <dc:title></dc:title>
      </cc:Work>
    </rdf:RDF>
  </metadata>
  <g
     inkscape:label="Ebene 1"
     inkscape:groupmode="layer"
     id="layer1"
     transform="translate(156.08111,-197.68211)">
    <path
       d="m -149.26904,207.0435 0.68699,1.30644 c -0.30533,0.5308 -0.71829,0.98985 -1.2389,1.37784 -0.8509,0.50302 -1.54282,0.42176 -2.07573,-0.24412 1.03101,-0.46538 1.90689,-1.27865 2.62764,-2.44016 m -2.66528,-3.92248 a 2.1439772,2.1439772 0 0 1 0.23673,1.22765 8.3578173,8.3578173 0 0 1 -0.51814,2.21081 7.3862565,7.3862565 0 0 0 -0.42422,1.70779 2.3800082,2.3800082 0 0 0 0.16884,1.20513 c 0.16287,0.39292 0.45659,0.72955 0.88222,1.00955 -0.45799,0.13789 -0.8583,0.17553 -1.20126,0.11257 -0.60046,-0.11468 -0.99197,-0.47629 -1.17488,-1.08448 a 3.5710675,3.5710675 0 0 1 -0.0939,-1.78694 11.741749,11.741749 0 0 1 0.43548,-1.64413 11.605618,11.605618 0 0 0 0.43161,-1.70814 c 0.0376,-0.22021 0.0415,-0.4492 0.0113,-0.68699 a 1.6603072,1.6603072 0 0 0 -0.27402,-0.70563 1.5822165,1.5822165 0 0 0 -0.60046,-0.50654 c 0.24518,-0.0454 0.48789,-0.0827 0.72814,-0.11256 a 1.4506582,1.4506582 0 0 1 0.72815,0.12347 c 0.29548,0.13015 0.51708,0.34296 0.66482,0.63844 m 7.90159,-1.80206 0.22161,0.21809 -1.84674,1.67789 0.55543,0.55543 1.67789,-1.84674 0.21774,0.22126 -1.84322,1.67789 0.52166,0.52166 1.67789,-1.84322 0.22161,0.21809 -1.84674,1.6779 0.55578,0.55578 1.76408,-1.76443 0.37533,0.36759 -1.58398,1.58433 h 0.004 l -2.06483,2.06096 -1.25332,0.51427 -1.79468,-1.34759 -0.007,-0.008 -0.008,0.008 0.004,0.007 1.19387,1.59207 -0.39784,0.1611 -1.7493,-1.7493 0.44322,-1.08096 1.63639,1.22764 0.004,0.004 0.0116,-0.007 -0.004,-0.004 -1.38946,-1.85025 0.22513,-0.55227 1.69337,-1.68915 h -0.004 l 1.95544,-1.95191 0.37181,0.36794 -1.7683,1.76794 0.55191,0.55192 1.6779,-1.84323 m 1.45628,9.91014 c 1.5495,-1.5488 2.32408,-3.41981 2.32408,-5.61198 0,-2.18725 -0.77458,-4.05791 -2.32373,-5.61198 -1.55413,-1.54916 -3.42479,-2.32373 -5.61204,-2.32373 -2.19252,0 -4.06282,0.77457 -5.61233,2.32372 -0.9508,0.95327 -1.60895,2.02473 -1.97443,3.21333 l 0.15759,-0.0862 c 0.7883,-0.41543 1.48654,-0.20297 2.09473,0.63809 -0.5505,0.11257 -0.99196,0.23146 -1.32508,0.35669 a 1.9230719,1.9230719 0 0 0 -0.50301,0.28879 c -0.33769,0.26804 -0.55051,0.60855 -0.6381,1.02116 a 3.9801644,3.9801644 0 0 0 0.0113,1.76056 c 0.28493,1.52664 1.01096,2.87036 2.1774,4.03152 1.5488,1.55162 3.41946,2.3276 5.61198,2.3276 2.1897,0 4.06036,-0.77598 5.61198,-2.3276"
       fill="url(#c)"
       id="path17"
       style="fill:url(#c);stroke-width:0.351761" />
  </g>
</svg>
