<svg xmlns="http://www.w3.org/2000/svg" xmlns:xlink="http://www.w3.org/1999/xlink" width="59.828" height="60.001" viewBox="0 0 15.829 15.875"><defs><linearGradient xlink:href="#a" id="b" gradientUnits="userSpaceOnUse" gradientTransform="matrix(.07508 0 0 -.07508 -149.269 207.043)" x1="16.045" y1="132.803" x2="16.045" y2="-81.164"/><linearGradient id="a"><stop offset="0" stop-color="#b72f5f"/><stop offset="1" stop-color="#872346"/></linearGradient></defs><path d="M-149.269 207.043l.687 1.307c-.305.53-.718.99-1.239 1.378-.85.503-1.543.422-2.076-.244 1.031-.466 1.907-1.279 2.628-2.44m-2.665-3.923a2.144 2.144 0 01.236 1.228 8.358 8.358 0 01-.518 2.21 7.386 7.386 0 00-.424 1.708 2.38 2.38 0 00.169 1.205c.163.393.456.73.882 1.01-.458.138-.858.175-1.201.113-.6-.115-.992-.477-1.175-1.085a3.571 3.571 0 01-.094-1.787 11.742 11.742 0 01.436-1.644 11.606 11.606 0 00.431-1.708c.038-.22.042-.45.011-.687a1.66 1.66 0 00-.274-.706 1.582 1.582 0 00-.6-.506c.245-.046.488-.083.728-.113a1.45 1.45 0 01.728.124c.296.13.517.343.665.638m7.902-1.802l.221.218-1.846 1.678.555.555 1.678-1.846.218.22-1.844 1.679.522.521 1.678-1.843.222.218-1.847 1.678.556.556 1.764-1.764.375.367-1.584 1.584h.004l-2.065 2.061-1.253.515-1.795-1.348-.007-.008-.008.008.004.007 1.194 1.592-.398.161-1.75-1.749.444-1.081 1.637 1.228.004.004.011-.007-.004-.004-1.39-1.85.226-.553 1.693-1.689h-.004l1.956-1.952.371.368-1.768 1.768.552.552 1.678-1.843m1.456 9.91c1.55-1.549 2.324-3.42 2.324-5.612 0-2.187-.774-4.058-2.323-5.612-1.555-1.55-3.425-2.324-5.612-2.324-2.193 0-4.063.775-5.613 2.324-.95.953-1.609 2.025-1.974 3.213l.157-.086c.789-.415 1.487-.203 2.095.638a9.03 9.03 0 00-1.325.357 1.923 1.923 0 00-.503.289c-.338.268-.55.608-.638 1.02a3.98 3.98 0 00.011 1.761c.285 1.527 1.011 2.87 2.178 4.032 1.548 1.551 3.419 2.327 5.612 2.327 2.19 0 4.06-.776 5.612-2.327" fill="url(#b)" transform="translate(156.081 -197.682)"/></svg>