<?xml version="1.0" encoding="UTF-8" standalone="no"?>
<svg
   xmlns:dc="http://purl.org/dc/elements/1.1/"
   xmlns:cc="http://creativecommons.org/ns#"
   xmlns:rdf="http://www.w3.org/1999/02/22-rdf-syntax-ns#"
   xmlns:svg="http://www.w3.org/2000/svg"
   xmlns="http://www.w3.org/2000/svg"
   xmlns:sodipodi="http://sodipodi.sourceforge.net/DTD/sodipodi-0.dtd"
   xmlns:inkscape="http://www.inkscape.org/namespaces/inkscape"
   width="4.9519377cm"
   height="2.4178078cm"
   viewBox="483 362 82.202165 33.043373"
   version="1.1"
   id="svg34"
   sodipodi:docname="default.svg"
   inkscape:version="0.92.4 5da689c313, 2019-01-14">
  <metadata
     id="metadata40">
    <rdf:RDF>
      <cc:Work
         rdf:about="">
        <dc:format>image/svg+xml</dc:format>
        <dc:type
           rdf:resource="http://purl.org/dc/dcmitype/StillImage" />
        <dc:title></dc:title>
      </cc:Work>
    </rdf:RDF>
  </metadata>
  <defs
     id="defs38" />
  <sodipodi:namedview
     pagecolor="#ffffff"
     bordercolor="#666666"
     borderopacity="1"
     objecttolerance="10"
     gridtolerance="10"
     guidetolerance="10"
     inkscape:pageopacity="0"
     inkscape:pageshadow="2"
     inkscape:window-width="1920"
     inkscape:window-height="1022"
     id="namedview36"
     showgrid="false"
     fit-margin-top="0"
     fit-margin-left="0"
     fit-margin-right="0"
     fit-margin-bottom="0"
     inkscape:zoom="1.8679583"
     inkscape:cx="93.408272"
     inkscape:cy="44.844592"
     inkscape:window-x="0"
     inkscape:window-y="25"
     inkscape:window-maximized="1"
     inkscape:current-layer="svg34" />
  <g
     id="g32"
     transform="translate(-0.94456337,-4.4605104)">
    <path
       style="fill:#00b4ff"
       d="M 483.976,383.05 508.774,363 h 57.25 l -20.522,20.05 z"
       id="path2"
       inkscape:connector-curvature="0" />
    <path
       style="fill:none;fill-opacity:0;stroke:#000000;stroke-width:0.02"
       d="M 483.976,383.05 508.774,363 h 57.25 l -20.522,20.05 h -61.526"
       id="path4"
       inkscape:connector-curvature="0" />
    <path
       style="fill:none;fill-opacity:0;stroke:#add6e7;stroke-width:0.1"
       d="M 483.976,383.05 508.774,363 h 57.25 l -20.522,20.05 h -61.526"
       id="path6"
       inkscape:connector-curvature="0" />
    <path
       style="fill:#005a80"
       d="m 545.502,402.981 20.522,-22.157 v -17.791 l -20.522,20.015 v 19.931 z"
       id="path8"
       inkscape:connector-curvature="0" />
    <path
       style="fill:none;fill-opacity:0;stroke:#000000;stroke-width:0.02"
       d="m 545.502,402.981 20.522,-22.157 v -17.791 l -20.522,20.015 v 19.931 0.002"
       id="path10"
       inkscape:connector-curvature="0" />
    <path
       style="fill:none;fill-opacity:0;stroke:#add6e7;stroke-width:0.1"
       d="m 545.502,402.981 20.522,-22.157 v -17.791 l -20.522,20.015 v 19.931"
       id="path12"
       inkscape:connector-curvature="0" />
    <path
       style="fill:#0096d4"
       d="m 484.062,403 h 61.44 v -19.95 h -61.44 z"
       id="path14"
       inkscape:connector-curvature="0" />
    <path
       style="fill:none;fill-opacity:0;stroke:#000000;stroke-width:0.02"
       d="m 484.062,403 h 61.44 v -19.95 h -61.44 V 403"
       id="path16"
       inkscape:connector-curvature="0" />
    <path
       style="fill:none;fill-opacity:0;stroke:#add6e7;stroke-width:0.1"
       d="m 484.062,403 h 61.44 v -19.95 h -61.44 V 403"
       id="path18"
       inkscape:connector-curvature="0" />
    <path
       style="fill:#ffffff"
       d="m 517.53,394.108 -24.019,0.015 v -2.934 l 24.019,-0.009 0.01,-4.572 10.672,6.041 -10.672,6.041 z"
       id="path20"
       inkscape:connector-curvature="0" />
    <path
       style="fill:none;fill-opacity:0;stroke:#add6e7;stroke-width:0.02"
       d="m 517.53,394.108 -24.019,0.015 v -2.934 l 24.019,-0.009 0.01,-4.572 10.672,6.041 -10.672,6.041 -0.01,-4.582"
       id="path22"
       inkscape:connector-curvature="0" />
    <path
       style="fill:#ffffff"
       d="m 496.149,391.191 -0.01,-4.572 -10.675,6.042 10.675,6.041 0.01,-4.582 z"
       id="path24"
       inkscape:connector-curvature="0" />
    <path
       style="fill:none;fill-opacity:0;stroke:#add6e7;stroke-width:0.02"
       d="m 496.149,391.191 -0.01,-4.572 -10.675,6.042 10.675,6.041 0.01,-4.582 v -2.929"
       id="path26"
       inkscape:connector-curvature="0" />
    <path
       style="fill:#ffffff"
       d="m 542.84,391.191 -0.009,-4.572 -10.673,6.042 10.673,6.041 0.009,-4.582 z"
       id="path28"
       inkscape:connector-curvature="0" />
    <path
       style="fill:none;fill-opacity:0;stroke:#add6e7;stroke-width:0.02"
       d="m 542.84,391.191 -0.009,-4.572 -10.673,6.042 10.673,6.041 0.009,-4.582 v -2.929"
       id="path30"
       inkscape:connector-curvature="0" />
  </g>
</svg>
